<svg width="29" height="33" viewBox="0 0 29 33" fill="none" xmlns="http://www.w3.org/2000/svg">
<g id="instagram" clip-path="url(#clip0_766_3010)">
<path id="Vector" d="M14.5074 9.08745C10.3905 9.08745 7.0697 12.3939 7.0697 16.4931C7.0697 20.5923 10.3905 23.8988 14.5074 23.8988C18.6244 23.8988 21.9451 20.5923 21.9451 16.4931C21.9451 12.3939 18.6244 9.08745 14.5074 9.08745ZM14.5074 21.3078C11.8469 21.3078 9.67193 19.1486 9.67193 16.4931C9.67193 13.8376 11.8405 11.6785 14.5074 11.6785C17.1744 11.6785 19.3429 13.8376 19.3429 16.4931C19.3429 19.1486 17.1679 21.3078 14.5074 21.3078ZM23.9842 8.78452C23.9842 9.74487 23.2074 10.5119 22.2494 10.5119C21.2849 10.5119 20.5146 9.73843 20.5146 8.78452C20.5146 7.83062 21.2914 7.05718 22.2494 7.05718C23.2074 7.05718 23.9842 7.83062 23.9842 8.78452ZM28.9103 10.5376C28.8003 8.22378 28.2695 6.17417 26.567 4.4855C24.871 2.79683 22.8126 2.26831 20.4887 2.15229C18.0936 2.01694 10.9148 2.01694 8.5197 2.15229C6.20229 2.26187 4.14381 2.79038 2.44135 4.47905C0.738895 6.16772 0.214565 8.21733 0.0980469 10.5312C-0.0378906 12.916 -0.0378906 20.0638 0.0980469 22.4486C0.208092 24.7624 0.738895 26.8121 2.44135 28.5007C4.14381 30.1894 6.19581 30.7179 8.5197 30.8339C10.9148 30.9693 18.0936 30.9693 20.4887 30.8339C22.8126 30.7244 24.871 30.1959 26.567 28.5007C28.263 26.8121 28.7938 24.7624 28.9103 22.4486C29.0463 20.0638 29.0463 12.9224 28.9103 10.5376ZM25.8161 25.0074C25.3112 26.2707 24.3338 27.2439 23.0585 27.7531C21.1489 28.5072 16.6177 28.3332 14.5074 28.3332C12.3972 28.3332 7.85943 28.5007 5.95631 27.7531C4.68756 27.2503 3.7101 26.2771 3.19872 25.0074C2.44135 23.106 2.61613 18.5943 2.61613 16.4931C2.61613 14.3919 2.44782 9.87378 3.19872 7.97886C3.70363 6.71558 4.68108 5.74233 5.95631 5.23315C7.8659 4.47905 12.3972 4.65308 14.5074 4.65308C16.6177 4.65308 21.1554 4.4855 23.0585 5.23315C24.3273 5.73589 25.3047 6.70913 25.8161 7.97886C26.5735 9.88022 26.3987 14.3919 26.3987 16.4931C26.3987 18.5943 26.5735 23.1124 25.8161 25.0074Z" fill="black"/>
</g>
<defs>
<clipPath id="clip0_766_3010">
<rect width="29" height="33" fill="white"/>
</clipPath>
</defs>
</svg>
