<svg width="38" height="38" viewBox="0 0 38 38" fill="none" xmlns="http://www.w3.org/2000/svg">
<g id="right-to-bracket-solid 1">
<path id="Vector" d="M16.1723 7.85977L25.2863 16.9738C25.8207 17.5082 26.125 18.243 26.125 19C26.125 19.757 25.8207 20.4918 25.2863 21.0262L16.1723 30.1402C15.6973 30.6152 15.059 30.875 14.391 30.875C13.0031 30.875 11.875 29.7469 11.875 28.359V23.75H2.375C1.06133 23.75 0 22.6887 0 21.375V16.625C0 15.3113 1.06133 14.25 2.375 14.25H11.875V9.64102C11.875 8.25312 13.0031 7.125 14.391 7.125C15.059 7.125 15.6973 7.39219 16.1723 7.85977ZM26.125 30.875H30.875C32.1887 30.875 33.25 29.8137 33.25 28.5V9.5C33.25 8.18633 32.1887 7.125 30.875 7.125H26.125C24.8113 7.125 23.75 6.06367 23.75 4.75C23.75 3.43633 24.8113 2.375 26.125 2.375H30.875C34.8086 2.375 38 5.56641 38 9.5V28.5C38 32.4336 34.8086 35.625 30.875 35.625H26.125C24.8113 35.625 23.75 34.5637 23.75 33.25C23.75 31.9363 24.8113 30.875 26.125 30.875Z" fill="white"/>
</g>
</svg>
