<svg width="38" height="26" viewBox="0 0 38 26" fill="none" xmlns="http://www.w3.org/2000/svg">
<path id="Vector" d="M37.206 4.06812C36.7689 2.46682 35.4813 1.20568 33.8464 0.777698C30.8829 0 19 0 19 0C19 0 7.11713 0 4.15365 0.777698C2.51873 1.20575 1.23108 2.46682 0.794047 4.06812C0 6.97057 0 13.0263 0 13.0263C0 13.0263 0 19.082 0.794047 21.9844C1.23108 23.5857 2.51873 24.7943 4.15365 25.2223C7.11713 26 19 26 19 26C19 26 30.8829 26 33.8464 25.2223C35.4813 24.7943 36.7689 23.5857 37.206 21.9844C38 19.082 38 13.0263 38 13.0263C38 13.0263 38 6.97057 37.206 4.06812ZM15.1136 18.5244V7.52815L25.0454 13.0264L15.1136 18.5244Z" fill="black"/>
</svg>
